<?xml version="1.0" encoding="UTF-8"?>
<svg width="1024" height="1024" version="1.1" viewBox="0 0 1024 1024" xmlns="http://www.w3.org/2000/svg">
    <g id="background">
        <path id="path2" d="m512.01 109c282.89 0 512.01 180.47 512.01 403.01 0 282.89-229.12 512.01-512.01 512.01-282.74 0-512.01-229.12-512.01-512.01 0-222.54 229.27-403.01 512.01-403.01z" fill="#4d1877"/>
        <path id="path3" d="m512.01 0.0016c282.89 0 512.01 229.27 512.01 512.01 0-141.34-114.49-256-256-256-141.3 0-256 114.67-256 256 0 141.47-114.57 256-256 256-141.37 0-256-114.53-256-256 0-282.74 229.27-512.01 512.01-512.01z" fill="#6e20a0"/>
    </g>
    <path id="content" d="m389.74 122.82-80.084 4e-3 -66.803 378.82h53.842c9.28 0 18.001-2.8005 26-8.4805 8-5.681 12.802-13.121 14.322-22.082l30.787-174.42c26.423 68.328 52.866 136.65 79.299 204.98h45.121c9.281 0 18.001-2.8005 26.002-8.4805 8-5.681 12.8-13.121 14.32-22.082l61.445-348.26h-89.285l-35.896 203.76zm397.79 132.8-9.2812 52.564h-17.359l-3.6016 20.24c-0.96 5.44-0.32 9.4398 2 11.84 2.2401 2.48 6.1616 3.6816 11.602 3.6816h1.1211l-15.121 85.766c-2.72 15.201-0.16138 27.521 7.5996 37.121 7.84 9.521 20.481 14.32 38.162 14.32h14c5.441 0 9.7609-1.1997 12.881-3.6797 3.2-2.4 5.2002-6.3198 6.1602-11.76l4.1621-23.682h-19.121c-2.96 0-5.1223-1.1998-6.3223-3.7598-1.28-2.561-1.4386-6.241-0.5586-11.121l14.641-83.205h12.4c5.44 0 9.6809-1.2016 12.881-3.6816 3.121-2.4 5.2-6.3998 6.1602-11.84l3.5215-20.24h-28.643l9.2812-52.564zm-110.89 43.844c-12.001 0-23.202 2.1594-33.604 6.4004-10.4 4.1599-19.76 10.24-27.92 18.08-8.241 7.9201-15.201 17.44-20.801 28.721-5.681 11.201-9.7622 23.921-12.242 37.922-2.32 13.361-2.7994 25.602-1.3594 36.723 1.36 11.121 4.7201 20.8 10.08 28.961 5.281 8.16 12.561 14.56 21.92 19.121 9.281 4.56 20.721 6.8809 34.242 6.8809 9.521 0 18.961-1.2799 28.322-3.9199 9.36-2.64 18.002-6.4815 25.842-11.521 7.841-5.04 14.56-11.2 20.24-18.32 5.681-7.12 9.682-15.12 12.002-24.16h-56.244c-1.04 3.76-2.3982 6.7991-4.1582 9.1191-1.76 2.4-3.6807 4.3217-5.7617 5.7617-2.16 1.52-4.4008 2.5591-6.8008 3.1191-2.32 0.56-4.6389 0.88086-6.8789 0.88086-8.081 0-13.602-3.5196-16.562-10.561-2.96-7.04-3.4394-16.322-1.4394-27.682h100.97l3.6797-20.881c2.241-12.881 2.3202-24.561 0.24023-34.961-2.08-10.401-5.9998-19.282-11.76-26.723-5.681-7.44-12.963-13.039-21.842-17.039-8.881-3.921-18.961-5.9219-30.162-5.9219zm-6.8008 38.24c4.56 0 8.0806 1.2014 10.641 3.5215 2.64 2.401 4.3995 5.3609 5.5195 8.8809 1.04 3.6 1.5204 7.3604 1.4394 11.441 0 4-0.4783 7.7594-1.2793 11.359h-44.963c0.71999-4.16 1.8414-8.3195 3.4414-12.561 1.5999-4.1601 3.599-8.0012 6-11.361 2.32-3.36 5.1203-6.0792 8.3203-8.1602 3.12-2.08 6.7999-3.1191 10.881-3.1191zm-530.27 87.686c-23.921 0-43.602 19.681-43.602 43.602 0 23.922 19.681 43.523 43.602 43.523 23.922 0 43.523-19.6 43.523-43.523 0-23.921-19.6-43.602-43.523-43.602zm185.29 139.77-53.521 303.7c-1.52 8.6401-0.40062 15.2 3.3594 19.68 3.841 4.4 10.001 6.6406 18.641 6.6406h90.324c30.722 0 58.725-8.5597 84.008-25.762 25.201-17.121 42.882-44.722 52.883-82.885 3.76-14.161 7.7598-33.68 11.84-58.482 4.08-24.72 6.8803-43.362 8.3203-55.762 3.84-31.761-3.3616-57.604-21.602-77.365-18.241-19.841-44.004-29.76-77.285-29.76zm66.885 59.443h34.322c13.68 0 23.361 5.9207 29.041 17.762 5.68 11.76 7.7612 24.8 6.2402 39.041-1.04 11.682-3.2807 27.601-6.7207 47.844-3.44 20.161-6.8002 36.402-10.24 48.562-5.441 19.041-13.199 33.441-23.441 43.281-10.24 9.761-20.961 14.641-32.16 14.641h-34.242zm231.05 94.482 2e-3 2e-3c-10.4 0-20.161 1.8395-29.201 5.5195-9.121 3.68-17.201 8.8808-24.402 15.76-7.12 6.88-13.2 15.201-18.082 24.961-4.96 9.841-8.4806 20.883-10.641 33.123-2 11.601-2.3992 22.24-1.1992 31.92 1.2 9.76 4.1587 18.161 8.7988 25.281 4.56 7.121 10.961 12.643 19.041 16.643 8.161 4 18.082 6 29.842 6 8.32 0 16.562-1.1214 24.721-3.4414 8.16-2.32 15.68-5.6 22.48-10 6.801-4.48 12.723-9.7599 17.602-15.92 4.96-6.24 8.4004-13.281 10.48-21.121h-48.963c-0.96 3.28-2.1597 5.92-3.6797 8-1.44 2-3.1191 3.679-5.0391 4.959-1.841 1.361-3.7618 2.2407-5.8418 2.7207s-4.08 0.7207-6 0.7207c-7.04 0-11.84-3.0411-14.4-9.1211-2.64-6.16-3.0412-14.241-1.2812-24.16h87.926l3.1992-18.162c2-11.201 2.0802-21.441 0.24023-30.482-1.84-9.04-5.2792-16.798-10.24-23.279-4.96-6.4-11.36-11.363-19.041-14.803-7.76-3.44-16.479-5.1191-26.32-5.1191zm67.605 1.4414 24.561 156.57h29.922c3.92 0 7.4405-1.1995 10.48-3.4395 3.12-2.32 5.6003-5.2808 7.3613-8.8008l72.963-144.33h-51.203l-34.713 75.949-8.4102-75.949zm-73.445 31.842c3.92 0 6.9612 1.041 9.2813 3.041 2.24 2.08 3.8388 4.6398 4.7187 7.7598 0.96102 3.12 1.3613 6.4019 1.3613 9.9219-0.08 3.5201-0.48016 6.7998-1.2012 9.9199h-39.201c0.64-3.6 1.681-7.2009 3.041-10.881 1.44-3.68 3.1192-7.0399 5.1992-9.9199 2.08-2.96 4.4812-5.3611 7.2812-7.1211 2.72-1.84 5.9195-2.7207 9.5195-2.7207z" fill="#fff"/>
</svg>
