<?xml version="1.0" encoding="utf-8"?>
<!-- Generator: Adobe Illustrator 16.0.0, SVG Export Plug-In . SVG Version: 6.00 Build 0)  -->
<!DOCTYPE svg PUBLIC "-//W3C//DTD SVG 1.1//EN" "http://www.w3.org/Graphics/SVG/1.1/DTD/svg11.dtd">
<svg version="1.1" id="Layer_1" xmlns="http://www.w3.org/2000/svg" xmlns:xlink="http://www.w3.org/1999/xlink" x="0px" y="0px"
	 width="500px" height="500px" viewBox="0 0 500 500" enable-background="new 0 0 500 500" xml:space="preserve">
<path fill="#49307F" d="M240.131,12.367c-7.2,3.201-10.9,11.201-9.399,19.899c0.799,5.101,3.6,8.802,8.799,11.4
	c2.4,1.199,4.601,2.5,4.9,2.699c0.801,0.899,3.1,14,2.6,14.801c-0.299,0.5-1.399,0.8-2.5,0.8c-4.1,0-17.6,3.2-23.8,5.7
	c-31.7,12.6-50.1,42.6-47.6,77.699c0.399,5.399,0.899,10.5,1.2,11.201c1.1,2.898-0.801,1.198-4.801-4.201
	c-4.399-5.898-11.899-20.999-11.899-23.798c0-1,0.8-3.102,1.7-4.9c3.699-7,3.3-15.801-0.9-21.9c-1-1.399-1.8-3.899-1.8-5.5
	c0-8.199-5.8-16.899-13.5-20.399c-5.5-2.5-14.9-2.5-22,0.2c-6.8,2.5-14.101,9.399-17.5,16.399c-4.9,10.3-3.5,25.3,3.2,33.8
	c2.3,2.9,3.6,6.4,5.5,15c4.199,19.301,12.199,36.601,23.399,51.301l5.101,6.5l-5.7,7.5c-16,20.899-41.8,34.5-62.8,33.101
	c-7.9-0.5-10.7,0.399-10.7,3.7c0,4.698,10.7,19.299,21.8,29.697c13,12.199,26.4,18.398,46.2,21.303c13.3,2,15.7,2.697,23.5,7
	c6.899,3.799,15.3,6.6,19.7,6.6c2.699,0,2.8,0.199,2.3,3.699c-0.3,2.1-1.4,10.701-2.4,19l-1.899,15.301l-7,6.5
	c-9.2,8.6-12.801,16.1-10.601,22c1.5,3.9,4.9,4.4,35.8,4.699c0,0,25.976,0.518,27.976,0.282c2-0.236,3.625-2.282,3.625-2.282
	c1-1.199,3.899-8.9,6.5-17c2.5-8.102,6.5-20.602,8.899-27.699l4.301-13h18.3h18.3l6.801,26.4c7.603,29.697,8.301,31.799,11,32.6
	c1.103,0.4,15.502,0.699,32.002,0.699c25.801,0,30.397-0.299,32.397-1.602c8.5-5.602,0.603-20.398-16-30.102
	c-1.5-0.898-1.897-3.301-2.601-15c-0.5-7.699-1.103-17.5-1.399-21.898c-0.5-7.301-0.397-7.801,1.2-7.102
	c3.5,1.5,11.199,1.699,16.199,0.5c9.897-2.301,16.801-10,17.601-19.398c0.3-3.801,1.3-5.197,9.2-13.197
	c4.896-4.9,9.896-11,11.1-13.604c6.9-14.3,4.2-28-8.1-41.8c-13.9-15.399-37.9-31-52.2-34l-5.397-1.101l3.397-6.699
	c11-21.7,10.7-50.2-0.601-72.2c-11.799-22.899-32.899-36.399-62.699-40.101l-10.102-1.3l-1.102-7c-0.604-3.899-1.3-7.7-1.5-8.301
	c-0.3-0.699,1.396-3,3.602-5.1c3.102-2.801,4.299-4.9,4.898-8.2c1-5.7-1-12.7-4.8-16.3C255.131,11.068,246.232,9.668,240.131,12.367
	z M252.432,22.968c3,2.8,3,8.3,0,10.399c-5.301,3.7-11.801,0.899-11.801-5.1C240.631,21.768,247.732,18.668,252.432,22.968z
	 M278.631,75.068c35.301,8.898,55.801,40.1,49.604,75.898c-2.399,13.5-6.803,22.5-15.399,30.899
	c-12.601,12.301-26.899,17.701-49.2,18.801c-33.4,1.5-61.601-11.6-73.7-34.4c-4.5-8.399-6.3-16.899-5.9-28.3
	c0.9-28.8,16.301-50.398,42.801-60.2C242.131,72.168,262.832,71.068,278.631,75.068z M140.631,85.568c2.899,1.799,6,6.198,6,8.799
	c0,1.101-0.9,1.601-3.2,1.601c-4.9,0-11.2,3.602-13.4,7.5c-1.3,2.5-2.399,3.3-3.899,3.102c-3-0.5-5.5,1.198-5.5,3.698
	c0,3.101,1.1,4.4,5,6.101c1.899,0.801,4.6,2.601,5.899,4c5,5.399,14.601,3.801,13.9-2.199c-0.2-2.2-0.9-2.801-3.8-3.2
	c-2.9-0.396-3.601-0.896-3.8-3.3c-0.2-1.6,0.199-3.5,0.899-4.301c1.601-1.899,9.3-1.799,11.3,0.201c2.5,2.398,2,9.198-0.899,13.898
	c-3.2,5.2-3.101,7.7,0.5,16.602c6.3,15.198,16,29.398,27.1,39.299c13.3,12,35.4,25.5,49.2,30c18.9,6.301,48.7,6,68.1-0.601
	c3.4-1.1,10.802-4.3,16.5-7.1c9.602-4.801,10.802-5.1,18.001-5.2c7.101,0,8.397,0.3,16.301,4.3
	c15.897,7.802,34.897,23.802,39.6,33.302c1.4,3,2.303,6.698,2.303,10.198c0.197,8.602-3.303,14.899-14.198,25l-8.9,8.301v6.103
	c0,5.603-0.3,6.302-3,8.701c-4.3,3.601-10.396,5.101-15.101,3.696c-6.801-2-7.699-3.5-8.399-13.897l-0.696-9.199l9.6-10
	c10.101-10.6,13.101-14.897,12.101-18c-0.897-2.7-13.3-14-19.698-17.8c-12.898-7.6-15.398-7.1-15.199,3.4
	c0.102,6.398,2.199,38.099,2.897,44.898c0.2,1.603,0.603,8.4,0.899,15c0.398,6.603,0.898,14.199,1.101,17
	c0.7,8.199,1.399,17.302,2.103,29c0.897,16.603,1,17.302,2.397,19c0.7,0.802,3.899,2.9,7.2,4.699c5.5,2.897,10.8,7.801,10.8,9.897
	c0,0.5-10.397,0.899-25,0.899c-13.698,0-25-0.101-25-0.301c0-2.699-15.199-57.3-16.3-58.5c-1.399-1.5-4.2-1.699-25.802-1.601
	h-24.298l-1.701,2.5c-1,1.301-5.399,14.101-9.899,28.397c-4.5,14.3-8.601,26.8-9.101,27.699c-0.899,1.602-3.1,1.801-24.899,1.801
	c-13.101,0-24.101-0.397-24.4-0.801c-0.899-1.398,4.4-7.199,10.3-11.103l5.801-3.897l1.199-8.898c0.7-4.801,1.4-10.397,1.601-12.301
	c0.3-1.897,1.1-8.5,2-14.5c0.8-6.103,1.8-13,2.1-15.5c1.2-9.897,8-56.6,9.7-67.601c0.7-4.601,1-9.101,0.5-10.299
	c-0.4-1.201-2.5-2.9-4.5-3.701c-39.2-16.199-62.1-43.899-70.9-85.601c-1.399-6.3-2.6-9.3-5.1-12.399c-8-9.899-8.4-21.101-1.1-30.699
	C121.131,84.867,133.931,81.668,140.631,85.568z M157.131,213.068c3.899,2.799,8.899,6.198,11.3,7.6l4.3,2.5l-1.7,2.699
	c-11.6,18.001-30.6,35.699-46,42.8c-3.699,1.701-5.399,3-5.399,4.301c0,2.9,2.6,3.699,8.6,2.9c13.3-1.802,29.5-14.9,46.9-37.9
	c6-8,7.8-9.7,9.5-9.3c1.2,0.3,2,1.4,2,2.699c0,2.301-8,41.8-11.4,56.101l-2.1,9l-3.4-0.301c-1.8-0.199-7.399-2.5-12.5-5.101
	c-9.1-4.698-15.2-6.5-25.6-7.603c-13.601-1.5-25.9-6.301-35.9-13.897c-6.8-5.198-18.2-17.603-17.5-18.801
	c0.3-0.397,2.2-0.801,4.2-0.801c9.7-0.1,26.8-6.6,39.1-14.899c7.601-5.2,17.2-14.101,23.101-21.5c2.5-3.101,4.7-5.601,5-5.601
	C149.933,207.967,153.332,210.268,157.131,213.068z M346.332,244.368c0.6,0.898-9.2,10.6-10.7,10.6c-0.397,0-0.7-0.6-0.7-1.301
	c0-0.601-0.396-5.199-0.8-10.1l-0.8-8.899l6.199,4.3C342.932,241.368,346.031,243.768,346.332,244.368z M292.932,121.468
	c-8.5,3.602-5.801,21.5,3.301,21.5c5.102,0,8.001-5.601,7.102-13.601C302.53,122.168,298.529,119.168,292.932,121.468z
	 M229.031,124.268c-5.1,4.4-4.1,16.601,1.5,19.7c3.101,1.602,5.101,1.2,8.201-1.898c2.5-2.602,2.899-3.701,2.899-8.602
	c0-4.901-0.399-6-2.899-8.601C235.232,121.367,232.631,121.168,229.031,124.268z M281.131,155.968c-5.3,5.8-20.8,6.7-28.602,1.5
	c-3.5-2.3-4.5-2.5-6.5-1.601c-3,1.399-3.199,5.301-0.299,8.2c5.797,5.8,20.399,8.101,31.297,5c5.5-1.601,12.603-7.7,12.603-10.7
	C289.631,153.968,284.332,152.468,281.131,155.968z"/>
<path fill="#49307F" d="M236.496,284.488l2.088-8.68c-5.193-0.095-7.79-1.793-7.79-5.104c0-1.546,0.649-2.808,1.947-3.781
	c1.298-0.974,3.208-1.462,5.729-1.462h2.653l3.217-13.503h-5.87c-2.447,0-4.338-0.503-5.673-1.51
	c-1.336-1.004-2.004-2.233-2.004-3.688c0-1.547,0.649-2.792,1.947-3.733c1.298-0.943,3.208-1.416,5.729-1.416h8.411l2.652-10.627
	c0.414-1.793,0.875-3.201,1.383-4.224c0.509-1.021,1.203-1.794,2.089-2.319c0.885-0.525,2.041-0.789,3.473-0.789
	c1.994,0,3.521,0.435,4.571,1.3c1.054,0.866,1.58,1.979,1.58,3.341c0,0.311-0.319,1.872-0.959,4.688l-2.089,8.632h12.361
	l2.709-10.628c0.375-1.606,0.732-2.907,1.072-3.896c0.338-0.99,0.948-1.825,1.834-2.506c0.885-0.682,2.174-1.021,3.866-1.021
	c1.956,0,3.472,0.418,4.544,1.252c1.072,0.836,1.607,1.966,1.607,3.39c0,0.647-0.049,1.283-0.143,1.901
	c-0.095,0.618-0.218,1.213-0.367,1.786c-0.148,0.573-0.243,0.938-0.279,1.091l-2.092,8.726c5.384,0.092,8.072,1.809,8.072,5.149
	c0,1.548-0.641,2.784-1.918,3.711c-1.281,0.93-3.182,1.395-5.703,1.395h-2.877l-3.389,13.503h6.266c2.521,0,4.422,0.495,5.703,1.484
	c1.277,0.987,1.918,2.241,1.918,3.759s-0.631,2.746-1.892,3.688c-1.263,0.943-3.17,1.416-5.729,1.416h-8.689l-2.653,10.672
	c-0.413,1.703-0.78,3.021-1.101,3.943c-0.32,0.93-0.934,1.74-1.836,2.438c-0.901,0.696-2.2,1.045-3.896,1.045
	c-1.882,0-3.367-0.437-4.459-1.302c-1.092-0.863-1.638-1.994-1.638-3.387c0-1.271,0.265-2.849,0.791-4.732l2.088-8.678h-12.47
	l-2.653,10.672c-0.677,2.631-1.383,4.521-2.116,5.687c-0.734,1.16-2.306,1.74-4.714,1.74c-1.919,0-3.424-0.437-4.516-1.302
	c-1.092-0.863-1.637-1.994-1.637-3.387c0-0.715,0.103-1.512,0.311-2.393C236.166,285.951,236.345,285.17,236.496,284.488z
	 M269.518,251.961h-12.476l-3.33,13.503H266.3L269.518,251.961z"/>
<g>
	<path fill="#49307F" d="M150.67,393.63c-3.691-1.921-8.062-2.896-12.989-2.896h-17.063c-0.552,0-1,0.447-1,1v44.013
		c0,0.553,0.448,1,1,1h17.063c4.928,0,9.296-0.964,12.985-2.865c3.722-1.918,6.622-4.657,8.618-8.141
		c1.987-3.47,2.995-7.496,2.995-11.974c0-4.479-1.007-8.506-2.995-11.976C157.289,398.313,154.39,395.564,150.67,393.63z
		 M137.842,426.052h-6.396V401.43h6.396c3.959,0,7.086,1.086,9.294,3.229c2.199,2.134,3.314,5.198,3.314,9.108
		c0,3.907-1.114,6.967-3.313,9.079C144.931,424.975,141.803,426.052,137.842,426.052z M213.741,413.714
		c0-4.55-1.082-8.708-3.215-12.356c-2.134-3.647-5.124-6.558-8.886-8.633c-3.751-2.07-8.01-3.123-12.659-3.123
		c-4.65,0-8.91,1.055-12.661,3.123c-3.76,2.075-6.75,4.979-8.885,8.633c-2.134,3.648-3.216,7.812-3.216,12.356
		c0,4.552,1.082,8.708,3.216,12.356c2.135,3.647,5.125,6.557,8.885,8.634c3.751,2.072,8.011,3.122,12.661,3.122
		c4.649,0,8.908-1.05,12.659-3.122c3.763-2.077,6.752-4.981,8.886-8.634C212.659,422.422,213.741,418.266,213.741,413.714z
		 M195.61,425.268c-1.96,1.13-4.19,1.703-6.628,1.703c-2.44,0-4.67-0.571-6.629-1.703c-1.955-1.125-3.51-2.715-4.62-4.722
		c-1.118-2.017-1.685-4.315-1.685-6.832c0-2.552,0.566-4.856,1.684-6.854c1.109-1.987,2.665-3.567,4.621-4.694
		c1.96-1.13,4.189-1.702,6.628-1.702c2.437,0,4.667,0.572,6.628,1.702c1.955,1.127,3.509,2.707,4.622,4.694
		c1.115,2,1.682,4.31,1.682,6.854c0,2.515-0.566,4.813-1.683,6.832C199.117,422.553,197.563,424.143,195.61,425.268z
		 M213.091,400.43v-8.691c0-0.555,0.448-1,1-1h38.448c0.553,0,1,0.445,1,1v8.691c0,0.555-0.447,1-1,1h-13.311v34.316
		c0,0.553-0.447,1-1,1H228.4c-0.553,0-1-0.447-1-1V401.43h-13.31C213.54,401.43,213.091,400.982,213.091,400.43z M256.832,435.746
		v-44.014c0-0.553,0.447-1,1-1h8.208c0.297,0,0.579,0.135,0.771,0.359l20.209,24.33v-24.229c0-0.555,0.446-1,1-1h9.826
		c0.555,0,1,0.445,1,1v44.012c0,0.553-0.445,1-1,1h-8.207c-0.298,0-0.578-0.132-0.771-0.361l-20.208-24.328v24.229
		c0,0.553-0.447,1-1,1h-9.828C257.277,436.746,256.832,436.299,256.832,435.746z M339.831,427.214v8.532c0,0.553-0.447,1-1,1
		h-33.209c-0.553,0-1-0.447-1-1v-44.014c0-0.553,0.447-1,1-1h32.724c0.555,0,1,0.447,1,1v8.533c0,0.555-0.445,1-1,1H316.45v6.963
		h20.008c0.553,0,1,0.445,1,1v8.531c0,0.555-0.447,1-1,1H316.45v7.449h22.382C339.384,426.214,339.831,426.661,339.831,427.214z
		 M382.383,391.732v8.692c0,0.556-0.447,1-1,1h-13.311v34.316c0,0.553-0.446,1-1,1h-9.828c-0.553,0-1-0.447-1-1v-34.316h-13.313
		c-0.554,0-1-0.444-1-1v-8.692c0-0.553,0.446-1,1-1h38.448C381.936,390.732,382.383,391.184,382.383,391.732z M203.885,443.267
		v44.016c0,0.553-0.447,1-1,1h-9.828c-0.552,0-1-0.447-1-1v-16.875h-17.439v16.874c0,0.553-0.448,1-1,1h-9.827c-0.552,0-1-0.447-1-1
		v-44.016c0-0.553,0.448-1,1-1h9.827c0.552,0,1,0.447,1,1v16.442h17.439v-16.442c0-0.553,0.448-1,1-1h9.828
		C203.438,442.267,203.885,442.714,203.885,443.267z M244.872,478.745v8.532c0,0.553-0.447,1-1,1h-33.21c-0.552,0-1-0.447-1-1
		v-44.016c0-0.553,0.448-1,1-1h32.724c0.554,0,1,0.447,1,1v8.532c0,0.553-0.446,1-1,1H221.49v6.964h20.006c0.553,0,1,0.447,1,1
		v8.532c0,0.553-0.447,1-1,1H221.49v7.45h22.382C244.423,477.745,244.872,478.192,244.872,478.745z M279.275,471.841
		c2.273-1.265,4.082-2.967,5.381-5.072c1.479-2.396,2.228-5.233,2.228-8.436s-0.759-6.046-2.256-8.465
		c-1.502-2.426-3.698-4.324-6.528-5.646c-2.785-1.299-6.127-1.957-9.928-1.957H250.46c-0.553,0-1,0.447-1,1v44.016
		c0,0.553,0.447,1,1,1h9.827c0.553,0,1-0.447,1-1V474.4h6.271l8.237,13.396c0.185,0.296,0.504,0.479,0.854,0.479h11.395
		c0.007,0.001,0.016,0.001,0.021,0c0.553,0,1-0.447,1-1c0-0.271-0.104-0.512-0.272-0.688L279.275,471.841z M261.287,452.961h6.451
		c2.394,0,4.254,0.486,5.527,1.446c1.202,0.902,1.789,2.188,1.789,3.926s-0.587,3.02-1.789,3.926
		c-1.272,0.96-3.135,1.446-5.527,1.446h-6.451V452.961z M326.57,444.255c-3.752-2.072-8.015-3.122-12.66-3.122
		c-4.65,0-8.91,1.05-12.661,3.122c-3.761,2.076-6.749,4.98-8.886,8.632c-2.133,3.65-3.215,7.813-3.215,12.358
		c0,4.551,1.082,8.708,3.215,12.354c2.136,3.651,5.125,6.561,8.886,8.638c3.751,2.067,8.011,3.118,12.661,3.118
		c4.646,0,8.908-1.051,12.66-3.118c3.763-2.077,6.75-4.981,8.886-8.638c2.133-3.646,3.215-7.807,3.215-12.354
		s-1.082-8.708-3.215-12.358C333.32,449.236,330.331,446.331,326.57,444.255z M320.54,476.799c-1.961,1.129-4.19,1.702-6.63,1.702
		c-2.44,0-4.67-0.572-6.629-1.702c-1.955-1.126-3.509-2.715-4.619-4.722c-1.118-2.021-1.687-4.315-1.687-6.832
		c0-2.552,0.565-4.858,1.685-6.856c1.108-1.986,2.665-3.565,4.621-4.692c1.96-1.132,4.188-1.702,6.629-1.702
		c2.438,0,4.666,0.571,6.63,1.702c1.952,1.127,3.508,2.706,4.62,4.692c1.115,2,1.683,4.312,1.683,6.856
		c0,2.515-0.563,4.813-1.685,6.832C324.048,474.084,322.492,475.673,320.54,476.799z"/>
</g>
</svg>
